<?xml version="1.0" encoding="UTF-8"?>
<svg fill="none" viewBox="0 0 46 46" xmlns="http://www.w3.org/2000/svg">
<path d="m23 4.1084c-10.497 0-19.006 8.5223-19.006 19.038 0 8.4101 5.4452 15.547 12.998 18.063 0.9503 0.1748 1.2962-0.4124 1.2962-0.918 0-0.4504-0.0152-1.6497-0.0247-3.2367-5.2874 1.1498-6.4031-2.5525-6.4031-2.5525-0.8629-2.2009-2.1096-2.7863-2.1096-2.7863-1.7257-1.1784 0.13115-1.1556 0.13115-1.1556 1.9063 0.1331 2.9098 1.9615 2.9098 1.9615 1.6953 2.9079 4.4493 2.0678 5.5308 1.5812 0.1748-1.2296 0.6652-2.0678 1.2087-2.543-4.2193-0.4808-8.6572-2.1153-8.6572-9.4098 0-2.0774 0.7412-3.7784 1.9557-5.1088-0.1957-0.4809-0.8476-2.4176 0.1863-5.0366 0 0 1.5965-0.5132 5.2266 1.95 1.5505-0.4229 3.1502-0.6382 4.7572-0.6405 1.6155 0.0076 3.2405 0.2186 4.7591 0.6405 3.6283-2.4632 5.221-1.9519 5.221-1.9519 1.0377 2.6209 0.3839 4.5576 0.19 5.0385 1.2164 1.3304 1.9538 3.0314 1.9538 5.1088 0 7.3135-4.4455 8.9233-8.6781 9.3946 0.6823 0.5873 1.2886 1.7486 1.2886 3.5257 0 2.543-0.0228 4.5975-0.0228 5.2209 0 0.5094 0.3421 1.1023 1.3076 0.9161 3.7847-1.2694 7.0747-3.6961 9.4051-6.9371s3.5833-7.1324 3.5817-11.124c0-10.516-8.5109-19.038-19.006-19.038z" clip-rule="evenodd" fill="#fff" fill-rule="evenodd"/>
</svg>
