<svg width="114" height="90" viewBox="0 0 114 90" fill="none" xmlns="http://www.w3.org/2000/svg">
<path opacity="0.87" d="M12.7587 43.8307C16.416 49.4067 21.6217 54.4055 25.6399 59.0863C29.658 63.767 34.0449 68.4286 36.1964 74.2101C53.112 119.666 103.997 51.1611 106.951 35.1001C107.681 31.1346 107.156 26.7836 104.299 23.9857C100.271 20.0412 91.9661 18.4561 79.1289 19.0628C56.6959 20.1231 46.2052 12.9389 36.7722 11.1476C14.5874 6.93485 0.424047 25.025 12.7587 43.8307Z" fill="url(#paint0_linear_304_1376)"/>
<path d="M77.7898 75.3355C56.8825 67.3388 16.1747 104.728 7.07598 74.9254C1.84247 57.783 30.0613 28.0496 49.7843 15.6433C67.774 4.32722 89.5908 7.80014 86.9156 30.0001C84.5669 49.4903 114 89.1852 77.7898 75.3355Z" fill="url(#paint1_linear_304_1376)"/>
<path opacity="0.87" d="M1.83808 16.4318C2.78213 17.4089 6.03293 19.526 7.21868 16.7513C7.49913 16.0948 7.62233 15.3761 7.93984 14.7366C9.2032 12.1911 13.8198 11.3344 14.1295 8.55462C14.9409 1.27057 -6.23334 8.07808 1.83808 16.4318Z" fill="url(#paint2_linear_304_1376)"/>
<path opacity="0.87" d="M101.686 68.9102C100.756 66.1555 102.939 64.5157 106.423 63.6625C108.901 63.0557 110.427 61.9967 111.548 62.3175C117.273 63.9562 104.704 77.8535 101.686 68.9102Z" fill="url(#paint3_linear_304_1376)"/>
<rect x="18.6077" width="71.6966" height="71.6966" fill="#27282C"/>
<path d="M41.9768 45.9702H36.1591V35.6118H30.1994V45.9702H24.3817V21.3866H30.1994V30.8228H36.1591V21.3866H41.9768V45.9702ZM63.2561 44.8705C62.4639 45.3908 61.5416 45.8047 60.4892 46.1121C59.4486 46.4196 58.3134 46.5733 57.0836 46.5733C54.6714 46.5733 52.8563 45.9584 51.6384 44.7286C50.4204 43.4988 49.8114 41.7724 49.8114 39.5494V31.0001H45.8561V27.1334H49.8114V23.0539L55.4164 22.3799V27.1334H61.4824L60.9326 31.0001H55.4164V39.5494C55.4164 40.4835 55.6233 41.1516 56.0372 41.5537C56.4628 41.9557 57.1487 42.1567 58.0947 42.1567C59.2771 42.1567 60.3768 41.873 61.3937 41.3054L63.2561 44.8705ZM85.2449 38.7867C85.2449 40.3121 84.8429 41.666 84.0388 42.8485C83.2347 44.0191 82.0759 44.9356 80.5623 45.5977C79.0606 46.2481 77.2869 46.5733 75.2412 46.5733C71.1735 46.5733 67.9335 45.3908 65.5213 43.0259L68.4656 39.7622C70.3458 41.4177 72.557 42.2454 75.0993 42.2454C76.3409 42.2454 77.3342 41.9794 78.0791 41.4473C78.8241 40.9151 79.1966 40.1761 79.1966 39.2301C79.1966 38.6271 79.0606 38.1245 78.7886 37.7225C78.5167 37.3086 78.0614 36.9361 77.4229 36.605C76.7962 36.2739 75.8975 35.931 74.7268 35.5763C72.7994 34.9851 71.2563 34.3347 70.0975 33.6252C68.9386 32.9157 68.0932 32.0998 67.5611 31.1775C67.0408 30.2552 66.7806 29.1614 66.7806 27.8961C66.7806 26.4417 67.1886 25.1765 68.0045 24.1004C68.8322 23.0125 69.9496 22.1848 71.3568 21.6172C72.7639 21.0496 74.3248 20.7658 76.0394 20.7658C79.6932 20.7658 82.6317 21.8241 84.8547 23.9408L82.1055 27.098C81.2777 26.4121 80.385 25.8978 79.4272 25.5548C78.4812 25.2119 77.5056 25.0405 76.5005 25.0405C75.3654 25.0405 74.4667 25.2533 73.8045 25.679C73.1423 26.0929 72.8112 26.6841 72.8112 27.4527C72.8112 27.9848 72.959 28.4283 73.2547 28.783C73.5503 29.1259 74.041 29.4511 74.7268 29.7585C75.4245 30.0541 76.4651 30.4207 77.8486 30.8582C79.504 31.3667 80.8639 31.952 81.9281 32.6142C82.9923 33.2646 83.8082 34.0923 84.3758 35.0974C84.9552 36.0907 85.2449 37.3204 85.2449 38.7867Z" fill="white"/>
<defs>
<linearGradient id="paint0_linear_304_1376" x1="39.8114" y1="86.1076" x2="147.356" y2="-12.6103" gradientUnits="userSpaceOnUse">
<stop stop-color="#05454E"/>
<stop offset="1" stop-color="#E7EDFF"/>
</linearGradient>
<linearGradient id="paint1_linear_304_1376" x1="6.48506" y1="82.5049" x2="116.552" y2="-6.66544" gradientUnits="userSpaceOnUse">
<stop stop-color="#0FA3A4"/>
<stop offset="1" stop-color="#3BDB52"/>
</linearGradient>
<linearGradient id="paint2_linear_304_1376" x1="-1.64372e-06" y1="11.7963" x2="14.1522" y2="11.7963" gradientUnits="userSpaceOnUse">
<stop stop-color="#12C3C4"/>
<stop offset="1" stop-color="#58BD67"/>
</linearGradient>
<linearGradient id="paint3_linear_304_1376" x1="103.221" y1="76.9204" x2="109.313" y2="61.3139" gradientUnits="userSpaceOnUse">
<stop stop-color="#58BD67"/>
<stop offset="1" stop-color="#12C3C4"/>
</linearGradient>
</defs>
</svg>
