<?xml version="1.0" encoding="UTF-8"?>
<svg fill="none" viewBox="0 0 46 46" xmlns="http://www.w3.org/2000/svg">
<path d="m23.599 3.8796c4.6185 0 5.2913 0.02471 7.2375 0.11403 2.0222 0.09313 3.404 0.41434 4.6127 0.88378 1.2687 0.47681 2.418 1.2247 3.3679 2.1914 0.9667 0.94987 1.7146 2.0992 2.1914 3.3679 0.4695 1.2088 0.7907 2.5905 0.8838 4.6128 0.0912 2.0279 0.114 2.6741 0.114 7.8361v0.1521c0 5.0233-0.0228 5.6771-0.114 7.6841-0.0931 2.0222-0.4143 3.404-0.8838 4.6127-0.4768 1.2687-1.2247 2.418-2.1914 3.3679-0.9499 0.9667-2.0992 1.7146-3.3679 2.1914-1.2087 0.4694-2.5905 0.7906-4.6127 0.8838-2.0279 0.0912-2.6741 0.114-7.8362 0.114h-0.152c-5.0233 0-5.6771-0.0228-7.6841-0.114-2.0223-0.0932-3.404-0.4144-4.6128-0.8838-1.2686-0.4768-2.418-1.2247-3.3678-2.1914-0.96673-0.9499-1.7146-2.0992-2.1914-3.3679-0.46945-1.2087-0.79065-2.5905-0.88378-4.6127-0.08933-1.9462-0.11404-2.6209-0.11404-7.2375v-1.1974c0-4.6184 0.02471-5.2912 0.11404-7.2374 0.09313-2.0223 0.41433-3.404 0.88378-4.6128 0.47681-1.2686 1.2247-2.418 2.1914-3.3679 0.94986-0.96672 2.0992-1.7146 3.3678-2.1914 1.2088-0.46944 2.5905-0.79065 4.6128-0.88378 1.9462-0.08932 2.6209-0.11403 7.2374-0.11403h1.1974zm-0.1539 3.4249h-0.8895c-4.6679 0-5.2913 0.0209-7.2356 0.11023-1.8531 0.08553-2.8585 0.39343-3.5294 0.65381-0.8876 0.34591-1.5205 0.75644-2.1857 1.4216-0.66521 0.66519-1.0757 1.2981-1.4216 2.1857-0.26038 0.6709-0.57018 1.6763-0.65381 3.5294-0.08932 1.9443-0.11023 2.5677-0.11023 7.2356v0.8895c0 4.6678 0.02091 5.2912 0.11023 7.2355 0.08553 1.8531 0.39343 2.8585 0.65381 3.5295 0.34591 0.8856 0.75834 1.5204 1.4216 2.1856 0.66519 0.6653 1.2981 1.0758 2.1857 1.4217 0.6709 0.2604 1.6763 0.5702 3.5294 0.6538 2.0032 0.0912 2.6038 0.1102 7.6803 0.1102h0.1521c4.9358 0 5.544-0.019 7.5263-0.1102 1.855-0.0855 2.8604-0.3934 3.5314-0.6538 0.8856-0.3459 1.5204-0.7564 2.1856-1.4217 0.6653-0.6652 1.0758-1.2981 1.4217-2.1856 0.2604-0.671 0.5702-1.6764 0.6538-3.5295 0.0912-2.0051 0.1102-2.6038 0.1102-7.6803v-0.152c0-4.9359-0.019-5.5441-0.1102-7.5264-0.0855-1.855-0.3934-2.8604-0.6538-3.5313-0.3045-0.8257-0.7903-1.5726-1.4217-2.1857-0.6131-0.63127-1.36-1.1171-2.1856-1.4216-0.671-0.26038-1.6764-0.57018-3.5295-0.65381-1.9443-0.08933-2.5677-0.11023-7.2355-0.11023zm-0.4448 5.8216c1.2817 0 2.5508 0.2524 3.7349 0.7429 1.184 0.4904 2.2599 1.2093 3.1662 2.1156 0.9063 0.9062 1.6251 1.9821 2.1156 3.1662s0.7429 2.4532 0.7429 3.7348c0 1.2817-0.2524 2.5508-0.7429 3.7349-0.4905 1.184-1.2093 2.2599-2.1156 3.1662-0.9063 0.9062-1.9822 1.6251-3.1662 2.1156-1.1841 0.4905-2.4532 0.7429-3.7349 0.7429-2.5884 0-5.0708-1.0282-6.901-2.8585-1.8303-1.8303-2.8585-4.3127-2.8585-6.9011s1.0282-5.0708 2.8585-6.901c1.8302-1.8303 4.3126-2.8585 6.901-2.8585zm0 3.4248c-1.68 0-3.2913 0.6674-4.4793 1.8554s-1.8554 2.7993-1.8554 4.4793c0 1.6801 0.6674 3.2913 1.8554 4.4793s2.7993 1.8554 4.4793 1.8554c1.6801 0 3.2913-0.6674 4.4793-1.8554s1.8554-2.7992 1.8554-4.4793c0-1.68-0.6674-3.2913-1.8554-4.4793s-2.7992-1.8554-4.4793-1.8554zm10.145-6.0914c0.6049 0 1.185 0.2403 1.6127 0.668 0.4278 0.4277 0.668 1.0078 0.668 1.6127s-0.2402 1.185-0.668 1.6127c-0.4277 0.4278-1.0078 0.668-1.6127 0.668s-1.185-0.2402-1.6127-0.668c-0.4277-0.4277-0.668-1.0078-0.668-1.6127s0.2403-1.185 0.668-1.6127 1.0078-0.668 1.6127-0.668z" clip-rule="evenodd" fill="#fff" fill-rule="evenodd"/>
</svg>
