<?xml version="1.0" encoding="UTF-8"?>
<svg fill="none" viewBox="0 0 46 47" xmlns="http://www.w3.org/2000/svg">
<path d="m15.949 39.187c14.344 0 22.19-11.884 22.19-22.19 0-0.3383 0-0.6747-0.0228-1.0073 1.5265-1.1052 2.8439-2.4734 3.8905-4.0407-1.4234 0.631-2.9335 1.0449-4.4797 1.2278 1.6281-0.9749 2.8466-2.5081 3.4287-4.3144-1.5306 0.90827-3.205 1.5484-4.9511 1.893-1.1757-1.251-2.7311-2.0795-4.4253-2.3573-1.6942-0.27774-3.4327 0.01082-4.9463 0.82099s-2.7179 2.0968-3.4265 3.6606c-0.7085 1.5638-0.8817 3.3175-0.4928 4.9897-3.1006-0.1554-6.1339-0.9611-8.903-2.3648s-5.2121-3.374-7.1703-5.7831c-0.99721 1.7166-1.3027 3.7488-0.85425 5.6827 0.44844 1.934 1.6171 3.6243 3.268 4.7269-1.2406-0.0359-2.4544-0.3697-3.5389-0.9731v0.0988c7.4e-4 1.8004 0.62415 3.5452 1.7645 4.9385 1.1404 1.3932 2.7275 2.3492 4.4923 2.7057-1.1483 0.3131-2.3532 0.3586-3.5218 0.1331 0.49826 1.5499 1.4686 2.9052 2.7751 3.8765 1.3066 0.9712 2.8841 1.5097 4.5118 1.5402-1.6172 1.2707-3.469 2.2101-5.4496 2.7645-1.9805 0.5544-4.0509 0.7129-6.0928 0.4665 3.5667 2.289 7.7168 3.503 11.955 3.4971" fill="#fff"/>
</svg>
