<?xml version="1.0" encoding="UTF-8"?>
<svg fill="none" viewBox="0 0 46 47" xmlns="http://www.w3.org/2000/svg">
<path d="m23 4.7227c-10.491 0-19.006 8.5146-19.006 19.006s8.5147 19.006 19.006 19.006c10.472 0 19.006-8.5147 19.006-19.006s-8.5337-19.006-19.006-19.006zm12.554 8.7617c2.339 2.8496 3.6333 6.4133 3.6681 10.1-0.534-0.1026-5.8937-1.1955-11.295-0.5151-0.1236-0.2679-0.2281-0.5568-0.3497-0.8457-0.3363-0.7925-0.6938-1.5758-1.072-2.3492 5.9774-2.4327 8.6991-5.9374 9.0488-6.3898zm-12.554-5.9584c4.1243 0 7.8951 1.5452 10.761 4.0825-0.2889 0.4106-2.7425 3.6891-8.5147 5.8539-2.6589-4.8846-5.6067-8.8853-6.061-9.503 1.2504-0.29229 2.5305-0.43771 3.8145-0.43334zm-6.9048 1.5262c2.1751 3.015 4.1844 6.1461 6.0192 9.3795-7.5872 2.0203-14.287 1.9766-15.007 1.9766 0.52234-2.4572 1.6053-4.7606 3.1643-6.7304 1.5591-1.9698 3.5521-3.5529 5.8237-4.6257zm-9.3396 14.695v-0.4942c0.70322 0.019 8.5755 0.1235 16.678-2.3092 0.4751 0.9066 0.9065 1.834 1.319 2.7615-0.2072 0.0628-0.4334 0.1236-0.6386 0.1863-8.3703 2.6988-12.823 10.079-13.194 10.698-2.6801-2.9755-4.1649-6.8384-4.1642-10.843zm16.244 16.225c-3.6084 0.0061-7.1145-1.1985-9.9572-3.4211 0.2889-0.5987 3.5883-6.9486 12.74-10.144 0.0418-0.019 0.0627-0.019 0.1026-0.0418 1.5439 3.9825 2.7041 8.1033 3.4648 12.306-2.0054 0.8629-4.1666 1.3054-6.3499 1.3zm9.0488-2.7844c-0.1635-0.9883-1.0301-5.7303-3.1531-11.563 5.0917-0.8039 9.5448 0.5151 10.1 0.7014-0.3467 2.1915-1.1427 4.2877-2.3381 6.157-1.1955 1.8692-2.7645 3.471-4.6086 4.7049z" clip-rule="evenodd" fill="#fff" fill-rule="evenodd"/>
</svg>
