<?xml version="1.0" standalone="no"?>
<!DOCTYPE svg PUBLIC "-//W3C//DTD SVG 20010904//EN"
 "http://www.w3.org/TR/2001/REC-SVG-20010904/DTD/svg10.dtd">
<svg version="1.0" xmlns="http://www.w3.org/2000/svg"
 width="912.000000pt" height="912.000000pt" viewBox="0 0 912.000000 912.000000"
 preserveAspectRatio="xMidYMid meet">
<metadata>
Created by potrace 1.14, written by Peter Selinger 2001-2017
</metadata>
<g transform="translate(0.000000,912.000000) scale(0.100000,-0.100000)"
fill="#000000" stroke="none">
<path d="M1490 8133 c-1 -16 -1 -254 -1 -531 -1 -461 -2 -504 -17 -509 -9 -3
-25 -13 -34 -21 -10 -8 -18 -12 -18 -8 0 4 -6 1 -14 -6 -11 -10 -11 -16 -2
-28 9 -13 9 -13 -5 -2 -17 13 -49 7 -49 -9 0 -5 -6 -9 -13 -9 -7 0 -43 -24
-80 -54 -37 -30 -79 -62 -92 -72 -13 -10 -21 -22 -19 -26 3 -5 1 -7 -4 -6 -6
2 -42 -29 -80 -68 -54 -55 -67 -75 -59 -83 9 -9 8 -11 -5 -6 -13 5 -23 -1 -35
-24 -10 -17 -21 -31 -25 -31 -5 0 -8 -5 -8 -11 0 -6 -6 -17 -12 -24 -24 -26
-33 -40 -53 -77 -11 -21 -23 -38 -26 -38 -7 0 -23 -50 -21 -62 1 -5 -2 -8 -7
-8 -9 0 -27 -40 -22 -49 2 -2 -2 -7 -7 -10 -13 -8 -63 -151 -57 -161 3 -5 1
-10 -4 -12 -6 -1 -12 -15 -15 -30 -3 -16 -9 -40 -12 -55 -3 -16 -7 -37 -8 -48
-1 -12 -5 -25 -8 -30 -10 -17 -13 -80 -4 -94 6 -10 5 -12 -2 -7 -13 8 -13 11
-15 -132 -1 -50 0 -92 3 -92 3 0 6 -26 6 -58 3 -107 6 -142 13 -137 4 2 7 -6
6 -18 -1 -12 2 -40 8 -62 15 -64 15 -69 16 -88 1 -10 5 -16 10 -13 4 3 7 -5 6
-18 -2 -14 2 -35 9 -48 7 -13 11 -29 8 -36 -2 -6 1 -12 7 -12 6 0 10 -3 10 -7
-3 -15 14 -73 20 -73 4 0 7 -10 8 -22 1 -11 6 -24 10 -27 4 -3 10 -15 11 -26
2 -11 8 -23 14 -26 5 -3 9 -10 8 -15 -1 -10 41 -106 50 -114 4 -3 12 -20 19
-37 8 -18 17 -33 21 -33 3 0 7 -6 7 -13 0 -7 12 -33 28 -57 74 -116 121 -186
130 -192 5 -4 7 -8 3 -8 -4 0 0 -9 9 -19 9 -11 21 -17 26 -14 6 3 7 1 3 -5 -3
-6 1 -18 10 -26 8 -9 13 -16 9 -16 -3 0 6 -11 20 -25 14 -14 25 -33 25 -42 0
-10 6 -13 16 -9 8 3 13 2 9 -3 -3 -5 6 -23 21 -40 l25 -30 -73 -108 c-41 -59
-100 -151 -132 -203 -33 -52 -69 -111 -81 -130 -71 -111 -184 -337 -292 -588
-66 -151 -141 -443 -159 -612 -20 -194 -3 -380 50 -545 1 -5 6 -23 11 -40 4
-16 12 -36 18 -42 5 -7 6 -13 3 -13 -4 0 -1 -10 6 -23 7 -12 13 -24 13 -27 14
-55 113 -240 179 -334 40 -56 202 -212 258 -249 100 -66 268 -138 356 -153 15
-3 38 -7 52 -10 14 -3 43 -8 65 -12 57 -9 408 -8 480 1 33 5 76 10 95 12 19 1
35 4 35 5 0 2 24 7 72 14 21 3 72 12 113 22 41 9 84 18 95 20 11 1 45 10 75
19 30 9 66 18 80 21 39 8 180 50 355 106 88 29 165 53 170 54 22 6 100 36 119
46 12 6 18 7 13 3 -4 -5 4 -16 19 -25 14 -10 24 -20 22 -22 -11 -16 230 -261
249 -253 7 2 12 -1 10 -8 -1 -7 4 -11 11 -9 8 1 11 -2 7 -8 -3 -5 5 -15 19
-22 14 -6 26 -15 26 -20 0 -4 6 -8 13 -8 8 0 24 -9 37 -20 12 -11 27 -17 31
-14 5 3 9 1 9 -3 0 -8 65 -47 79 -48 3 -1 22 -8 41 -17 55 -25 104 -43 120
-44 8 0 22 -3 30 -7 38 -15 130 -30 191 -32 36 -1 71 -5 77 -9 6 -3 14 -2 17
4 5 8 11 7 21 -1 11 -9 14 -8 14 2 0 9 3 10 8 4 8 -11 42 -16 42 -6 0 3 17 6
38 5 20 -1 60 2 87 7 28 5 61 11 75 13 14 3 27 5 30 6 3 2 9 2 14 1 4 -1 15 4
24 11 13 11 14 11 8 0 -7 -11 -4 -12 10 -4 11 6 22 10 27 11 4 1 8 1 10 2 1 0
10 2 20 4 10 2 26 7 35 11 9 4 22 8 27 8 31 4 75 19 75 25 0 4 8 7 18 8 9 1
31 7 47 14 17 7 35 13 40 14 16 4 165 70 195 86 8 5 38 20 67 33 28 14 54 30
58 35 3 6 15 11 27 11 13 0 18 5 15 14 -4 9 0 12 12 9 10 -2 23 3 30 11 8 9
17 16 22 16 5 0 47 25 94 55 46 30 89 55 95 55 5 0 10 3 10 8 0 4 34 29 75 57
41 27 75 53 75 57 0 5 4 8 10 8 17 0 105 73 104 86 -1 7 5 10 12 7 7 -3 20 1
28 9 8 7 31 27 52 43 100 81 161 131 181 152 12 13 25 23 29 23 4 0 16 10 28
23 69 71 180 162 194 159 9 -2 60 -19 112 -37 346 -119 638 -168 853 -142 60
7 181 50 207 73 8 8 27 24 41 36 55 50 105 144 124 235 11 51 13 257 3 343
-10 95 -49 296 -80 410 -11 41 -21 82 -23 90 -3 8 -11 40 -20 70 -9 30 -17 60
-19 65 -1 6 -8 30 -15 55 -7 25 -13 47 -13 50 0 3 -6 19 -13 36 -12 30 -11 34
26 83 21 28 35 51 31 51 -4 0 0 6 9 13 22 17 99 122 99 135 0 5 4 12 8 14 12
5 92 116 92 128 0 5 5 10 11 10 5 0 8 4 5 9 -3 5 1 12 10 15 13 5 14 9 4 21
-11 13 -10 14 4 9 10 -4 18 0 23 12 4 11 17 30 30 44 13 14 23 29 23 34 0 5
11 24 26 43 14 18 22 33 19 33 -4 0 1 7 9 16 9 8 14 20 10 25 -3 5 0 8 8 7 7
-2 12 5 12 14 -1 10 2 15 7 12 5 -3 9 2 9 10 0 9 4 16 10 16 5 0 12 11 16 25
3 14 10 25 14 25 5 0 12 10 16 22 4 13 14 28 23 35 9 7 12 13 6 13 -5 0 -5 4
2 8 6 4 13 14 15 22 2 8 9 21 16 28 7 8 9 18 6 24 -4 7 -2 8 4 4 7 -4 18 6 27
26 8 18 26 51 40 73 14 22 30 52 36 67 6 16 15 28 21 28 5 0 7 4 3 9 -3 5 2
17 11 25 8 9 13 16 10 16 -2 0 11 26 30 57 19 31 34 63 34 70 0 7 5 13 10 13
6 0 9 3 8 8 -1 4 3 17 10 28 6 12 8 24 5 28 -3 3 -2 6 4 6 8 0 53 85 58 110 0
3 11 25 23 49 12 24 19 48 16 52 -3 5 0 9 5 9 6 0 11 9 11 19 0 11 3 21 8 23
11 5 53 129 46 139 -3 5 -1 9 4 9 12 0 44 121 46 173 0 9 3 17 6 17 8 0 13 85
14 233 0 104 -3 140 -13 146 -11 7 -11 9 0 13 10 3 11 9 4 19 -6 8 -12 28 -14
44 -2 29 -30 116 -58 183 -8 20 -18 30 -25 26 -7 -4 -8 -3 -4 5 4 6 2 18 -4
26 -7 8 -9 15 -5 15 4 0 -4 11 -18 24 -14 13 -23 26 -21 29 6 6 -142 157 -154
157 -4 0 -20 11 -36 25 -16 13 -33 22 -37 19 -5 -3 -9 -1 -9 4 0 14 -71 55
-93 54 -9 0 -15 2 -13 6 2 4 -17 16 -42 26 -26 10 -60 24 -77 31 -38 15 -95
35 -115 40 -8 2 -30 9 -49 14 -19 6 -37 8 -42 6 -4 -3 -9 -1 -11 4 -1 6 -19
12 -38 14 -19 2 -42 7 -50 10 -8 3 -33 9 -55 12 -22 4 -53 10 -70 13 -16 3
-51 6 -77 6 -25 1 -44 5 -40 10 3 5 -2 7 -11 3 -10 -3 -17 -3 -17 1 0 4 -16 7
-35 8 -22 0 -32 -3 -28 -10 4 -7 1 -6 -8 1 -8 6 -30 13 -49 15 l-35 4 0 765 0
764 -2867 3 -2868 2 0 -27z m-565 -1802 c3 -5 2 -12 -3 -15 -5 -3 -9 1 -9 9 0
17 3 19 12 6z m7156 -18 c13 -16 12 -17 -3 -4 -10 7 -18 15 -18 17 0 8 8 3 21
-13z m-7270 -30 c13 -16 12 -17 -3 -4 -17 13 -22 21 -14 21 2 0 10 -8 17 -17z
m7520 -80 c13 -16 12 -17 -3 -4 -10 7 -18 15 -18 17 0 8 8 3 21 -13z m-805
-89 c1 -9 0 -13 -4 -10 -3 4 -7 14 -8 22 -1 9 0 13 4 10 3 -4 7 -14 8 -22z
m799 -143 c3 -5 2 -12 -3 -15 -5 -3 -9 1 -9 9 0 17 3 19 12 6z m-6955 -7 c0
-8 -19 -13 -24 -6 -3 5 1 9 9 9 8 0 15 -2 15 -3z m6564 -242 c3 -5 -1 -9 -9
-9 -8 0 -12 4 -9 9 3 4 7 8 9 8 2 0 6 -4 9 -8z m166 -78 c0 -8 -19 -13 -24 -6
-3 5 1 9 9 9 8 0 15 -2 15 -3z m-129 -41 c13 -16 12 -17 -3 -4 -10 7 -18 15
-18 17 0 8 8 3 21 -13z m-604 -438 c0 -8 -4 -12 -9 -9 -5 3 -6 10 -3 15 9 13
12 11 12 -6z m1098 -53 c-3 -3 -11 0 -18 7 -9 10 -8 11 6 5 10 -3 15 -9 12
-12z m-1104 -159 c13 -16 12 -17 -3 -4 -10 7 -18 15 -18 17 0 8 8 3 21 -13z
m-6185 -155 c3 -4 -1 -5 -10 -4 -8 1 -18 5 -22 8 -3 4 1 5 10 4 8 -1 18 -5 22
-8z m6671 -43 c0 -8 -4 -12 -9 -9 -5 3 -6 10 -3 15 9 13 12 11 12 -6z m-2002
-2603 c-3 -3 -11 0 -18 7 -9 10 -8 11 6 5 10 -3 15 -9 12 -12z m95 14 c0 -2
-8 -10 -17 -17 -16 -13 -17 -12 -4 4 13 16 21 21 21 13z m-886 -284 c3 -5 -1
-9 -9 -9 -8 0 -12 4 -9 9 3 4 7 8 9 8 2 0 6 -4 9 -8z m-687 -207 c0 -8 -4 -12
-9 -9 -5 3 -6 10 -3 15 9 13 12 11 12 -6z m-427 -31 c0 -8 -19 -13 -24 -6 -3
5 1 9 9 9 8 0 15 -2 15 -3z m984 -202 c3 -5 -1 -9 -9 -9 -8 0 -12 4 -9 9 3 4
7 8 9 8 2 0 6 -4 9 -8z m-600 -40 c3 -5 -1 -9 -9 -9 -8 0 -12 4 -9 9 3 4 7 8
9 8 2 0 6 -4 9 -8z m886 -36 c0 -2 -7 -7 -16 -10 -8 -3 -12 -2 -9 4 6 10 25
14 25 6z m-886 -44 c3 -5 -1 -9 -9 -9 -8 0 -12 4 -9 9 3 4 7 8 9 8 2 0 6 -4 9
-8z"/>
<path d="M790 7720 c-14 -4 -34 -6 -45 -4 -11 2 -23 -2 -27 -9 -5 -8 -8 -8 -8
-1 0 14 -112 -13 -122 -30 -6 -8 -8 -8 -8 1 0 13 -15 9 -75 -19 -12 -5 -27
-10 -35 -11 -23 -4 -121 -51 -170 -82 -25 -16 -46 -27 -48 -26 -2 1 -12 -7
-21 -18 -10 -12 -23 -21 -29 -21 -6 0 -12 -3 -14 -7 -1 -5 -18 -20 -36 -35
-19 -16 -31 -28 -27 -28 3 0 -8 -15 -25 -32 -75 -77 -122 -247 -85 -304 8 -12
10 -25 5 -30 -8 -9 35 -107 62 -140 49 -60 158 -160 158 -146 0 4 4 1 8 -5 5
-7 36 -24 69 -37 46 -18 64 -21 74 -12 9 8 10 8 5 -1 -5 -9 0 -13 16 -13 35 0
98 20 98 30 0 6 7 10 15 10 8 0 15 7 15 16 0 8 4 13 9 10 5 -3 12 1 15 10 9
23 8 26 -6 19 -7 -4 -4 1 7 10 11 9 21 20 21 25 1 6 3 12 4 15 1 3 4 10 5 15
1 6 3 11 5 13 2 2 6 18 14 56 3 14 11 28 18 33 7 4 10 8 5 8 -13 0 44 78 69
95 14 9 22 21 18 27 -4 6 -3 8 3 5 5 -4 19 3 31 13 12 11 25 20 30 20 5 0 17
9 27 20 10 11 24 20 30 20 7 0 15 7 19 15 3 8 14 15 23 15 10 0 25 9 33 20 8
11 19 20 25 20 6 0 22 10 35 23 14 12 27 22 31 22 10 0 81 79 96 108 8 16 12
35 9 43 -3 9 -1 12 4 9 6 -4 10 15 10 49 0 38 -4 56 -12 56 -9 0 -8 4 2 10 10
6 11 10 3 10 -7 0 -13 7 -13 14 0 19 -45 68 -53 59 -4 -3 -7 -2 -7 4 0 6 -16
18 -35 28 -37 17 -54 21 -115 31 -19 3 -41 7 -48 9 -7 3 -10 0 -6 -6 4 -8 1
-8 -12 -1 -11 5 -30 6 -44 2z m-385 -120 c3 -5 1 -10 -4 -10 -6 0 -11 5 -11
10 0 6 2 10 4 10 3 0 8 -4 11 -10z m245 -64 c0 -2 -8 -10 -17 -17 -16 -13 -17
-12 -4 4 13 16 21 21 21 13z m126 -178 c3 -4 -1 -5 -10 -4 -8 1 -18 5 -22 8
-3 4 1 5 10 4 8 -1 18 -5 22 -8z"/>
<path d="M8780 3154 c-41 -13 -84 -28 -95 -33 -39 -18 -60 -24 -72 -22 -7 1
-13 -3 -13 -9 0 -5 -3 -9 -7 -9 -25 4 -43 -2 -37 -13 4 -7 3 -8 -5 -4 -13 8
-111 -12 -111 -22 0 -4 -11 -8 -24 -8 -32 -2 -126 -45 -126 -57 0 -6 -3 -8 -6
-4 -4 3 -23 -6 -43 -21 -92 -69 -123 -128 -117 -223 2 -35 12 -82 22 -104 10
-22 17 -43 16 -47 -1 -5 3 -8 8 -8 6 0 10 -9 10 -20 0 -18 10 -24 31 -22 4 1
6 -6 5 -16 -1 -11 6 -16 17 -16 13 1 15 -1 8 -10 -7 -9 -2 -17 19 -30 17 -9
30 -14 30 -9 0 4 4 2 9 -6 5 -8 18 -17 28 -19 28 -7 145 -6 176 2 46 11 128
52 120 60 -4 4 0 4 10 0 10 -3 17 -1 17 6 0 6 5 8 10 5 6 -3 10 -2 10 2 0 5
14 17 32 28 17 10 51 37 75 60 24 23 43 41 43 39 0 -2 9 5 20 16 11 11 20 24
20 29 0 5 6 11 13 14 7 3 26 24 42 48 17 24 33 46 37 49 4 3 24 41 45 85 33
70 38 89 38 154 0 51 -4 76 -12 78 -7 3 -13 11 -13 18 0 21 -66 56 -112 60
-27 2 -72 -6 -118 -21z m-376 -472 c3 -5 -1 -9 -9 -9 -8 0 -12 4 -9 9 3 4 7 8
9 8 2 0 6 -4 9 -8z"/>
</g>
</svg>
